<?xml version="1.0" encoding="UTF-8"?>
<svg width="17px" height="22px" viewBox="0 0 17 22" version="1.1" xmlns="http://www.w3.org/2000/svg" xmlns:xlink="http://www.w3.org/1999/xlink">
    <!-- Generator: Sketch 59 (86127) - https://sketch.com -->
    <title>xinjiayuan-1@2x</title>
    <desc>Created with Sketch.</desc>
    <defs>
        <linearGradient x1="50%" y1="0%" x2="50%" y2="100%" id="yxyx_nav_user">
            <stop stop-color="#01A8E2" offset="0%"></stop>
            <stop stop-color="#00488B" offset="100%"></stop>
        </linearGradient>
    </defs>
    <g id="页面-1" stroke="none" stroke-width="1" fill-rule="evenodd" >
        <g id="首页备份-11" transform="translate(-329.000000, -826.000000)"  fill-rule="nonzero">
            <g id="xinjiayuan-1" transform="translate(329.000000, 826.000000)">
                <path d="M17,21.1180005 C17,20.5620008 16.9460001,20.0190011 16.8360002,19.4890014 C16.7244209,18.9549524 16.5589056,18.4336125 16.3420008,17.9330023 C16.123418,17.4453146 15.8617119,16.9781253 15.5600018,16.5370031 C14.9475079,15.6495976 14.1659106,14.8917875 13.2600047,14.3070044 C12.8029239,14.0130075 12.3211036,13.7593824 11.8200066,13.5490049 C11.4694588,13.4259274 11.1160254,13.3112282 10.7600079,13.2050051 C11.2644966,13.0424921 11.7478854,12.8206031 12.2000061,12.5440054 C12.6561955,12.2645746 13.080102,11.9355773 13.4640045,11.563006 C14.1222814,10.9457278 14.6464862,10.1995865 15.0040025,9.37100727 C15.3590021,8.54600776 15.5340019,7.68400825 15.5340019,6.78700877 C15.5380871,5.89020244 15.3576834,5.00213887 15.0040025,4.17801026 C14.6473607,3.34865112 14.123047,2.60201434 13.4640045,1.98501153 C12.8096042,1.35007063 12.0365623,0.850226501 11.1890074,0.51401238 C10.3378378,0.172783869 9.42902948,-0.00171288062 8.51201074,0 C7.56901194,0 6.67201307,0.171012578 5.82201413,0.51401238 C4.97414899,0.855377105 4.19876628,1.35454068 3.53701704,1.98501153 C2.89014469,2.60751411 2.37435595,3.35314725 2.02001896,4.17801026 C1.66659464,5.00225368 1.48587554,5.89019427 1.48901962,6.78700877 C1.48901962,7.68400825 1.6650194,8.54600776 2.01901896,9.37100727 C2.37261414,10.1959877 2.88850783,10.9414325 3.53601703,11.563006 C3.92301653,11.9390058 4.34501601,12.2660056 4.79901544,12.5440054 C5.24901487,12.8190053 5.73301426,13.0420052 6.23901362,13.2050051 C6.06901383,13.254005 5.89701405,13.307005 5.72101427,13.365005 C5.5450145,13.4230049 5.37101471,13.4830049 5.20301492,13.5490049 C4.70190483,13.7593549 4.22008221,14.0129812 3.76301674,14.3070044 C3.3106695,14.5997898 2.88799723,14.9360522 2.50101834,15.3110038 C2.11392426,15.6863821 1.76242393,16.0968008 1.45101967,16.5370031 C1.14002005,16.9770029 0.875020404,17.4440026 0.656020682,17.9330023 C0.220790344,18.9383028 -0.00252354676,20.0225333 0,21.1180005 C0,21.1660005 0.0200214934,21.2050004 0.0250214835,21.2500004 L0.0230214745,21.2630004 C0.0230214745,21.6640002 0.349021062,21.989 0.750020565,21.989 L0.852020419,21.989 C0.872020401,21.991 0.88902038,22 0.909020362,22 C0.929020344,22 0.946020323,21.991 0.967020277,21.989 L16.0340012,21.989 C16.0540012,21.991 16.0700012,22 16.0910011,22 C16.1110011,22 16.1280011,21.991 16.1480011,21.989 L16.2600009,21.989 C16.4525479,21.989 16.6372086,21.912511 16.7733598,21.7763596 C16.909511,21.6402083 16.986,21.4555475 16.986,21.2630004 C16.986,21.2500004 16.979,21.2390004 16.979,21.2250004 C16.983,21.1890005 16.999,21.1570005 16.999,21.1180005" id="路径"></path>
            </g>
        </g>
    </g>
</svg>